<svg xmlns="http://www.w3.org/2000/svg" xmlns:xlink="http://www.w3.org/1999/xlink" viewBox="0 0 801.1 422.2">
  <defs>
    <style>
      .cls-1, .cls-25 {
        fill: #fff;
      }

      .cls-2 {
        fill: #949494;
      }

      .cls-3 {
        fill: url(#linear-gradient);
      }

      .cls-4, .cls-6 {
        fill: none;
        stroke-miterlimit: 10;
      }

      .cls-4 {
        stroke: #4f4f4f;
      }

      .cls-5 {
        fill: #4f4f4f;
      }

      .cls-6 {
        stroke: #3c3c41;
      }

      .cls-7 {
        fill: #3c3c41;
      }

      .cls-8 {
        fill: url(#radial-gradient);
      }

      .cls-9 {
        fill: #74cfeb;
      }

      .cls-10 {
        fill: #2f8dcc;
      }

      .cls-11 {
        fill: url(#radial-gradient-2);
      }

      .cls-12 {
        fill: #005ca1;
      }

      .cls-13 {
        fill: #2e76bc;
      }

      .cls-14 {
        fill: url(#linear-gradient-2);
      }

      .cls-15 {
        fill: url(#linear-gradient-3);
      }

      .cls-16 {
        fill: #1e1e1e;
      }

      .cls-17 {
        fill: url(#linear-gradient-4);
      }

      .cls-18 {
        fill: #699cd3;
      }

      .cls-19 {
        fill: url(#linear-gradient-5);
      }

      .cls-20 {
        fill: url(#linear-gradient-6);
      }

      .cls-21 {
        fill: #e8e8e8;
      }

      .cls-22 {
        fill: #1b8ab3;
      }

      .cls-23 {
        fill: url(#radial-gradient-3);
      }

      .cls-24 {
        fill: url(#radial-gradient-4);
      }

      .cls-25 {
        opacity: 0.6;
      }

      .cls-25, .cls-26, .cls-29 {
        isolation: isolate;
      }

      .cls-26, .cls-29, .cls-32 {
        fill: #f2f2f3;
      }

      .cls-26 {
        opacity: 0.55;
      }

      .cls-27 {
        fill: url(#linear-gradient-7);
      }

      .cls-28 {
        fill: url(#linear-gradient-8);
      }

      .cls-29 {
        opacity: 0.7;
      }

      .cls-30 {
        fill: url(#linear-gradient-9);
      }

      .cls-31 {
        fill: url(#linear-gradient-12);
      }

      .cls-33 {
        fill: url(#linear-gradient-13);
      }

      .cls-34 {
        fill: url(#linear-gradient-14);
      }

      .cls-35 {
        fill: #40beaf;
      }

      .cls-36 {
        fill: #258378;
      }

      .cls-37 {
        fill: url(#linear-gradient-15);
      }

      .cls-38 {
        fill: url(#linear-gradient-16);
      }

      .cls-39 {
        fill: url(#linear-gradient-17);
      }

      .cls-40 {
        fill: url(#linear-gradient-18);
      }

      .cls-41 {
        fill: url(#linear-gradient-19);
      }

      .cls-42 {
        fill: url(#linear-gradient-20);
      }

      .cls-43 {
        fill: url(#linear-gradient-21);
      }

      .cls-44 {
        fill: url(#linear-gradient-22);
      }

      .cls-45 {
        fill: url(#linear-gradient-23);
      }

      .cls-46 {
        fill: url(#linear-gradient-24);
      }

      .cls-47 {
        fill-rule: evenodd;
      }

      .cls-48 {
        fill: url(#linear-gradient-25);
      }

      .cls-49 {
        fill: #777677;
      }

      .cls-50 {
        fill: #33bedd;
      }

      .cls-51 {
        fill: #a5def3;
      }

      .cls-52 {
        fill: url(#linear-gradient-26);
      }

      .cls-53 {
        font-size: 14px;
        font-family: SegoeUI, Segoe UI;
      }

      .cls-54 {
        letter-spacing: -0.04em;
      }

      .cls-55 {
        letter-spacing: -0.1em;
      }

      .cls-56 {
        letter-spacing: -0.03em;
      }

      .cls-57 {
        letter-spacing: -0.03em;
      }
    </style>
    <linearGradient id="linear-gradient" x1="377.39" y1="-337.82" x2="376.89" y2="-385.33" gradientTransform="translate(0 397)" gradientUnits="userSpaceOnUse">
      <stop offset="0" stop-color="#1b8ab3"/>
      <stop offset="0.09" stop-color="#21a5cb"/>
      <stop offset="0.19" stop-color="#2abade"/>
      <stop offset="0.29" stop-color="#3bc4e7"/>
      <stop offset="0.42" stop-color="#4ac7e9"/>
      <stop offset="0.62" stop-color="#50c8e9"/>
    </linearGradient>
    <radialGradient id="radial-gradient" cx="356.02" cy="-222.86" r="10.37" gradientTransform="translate(17.6 425.5) scale(1.01 1.14)" gradientUnits="userSpaceOnUse">
      <stop offset="0.2" stop-color="#fed70a"/>
      <stop offset="0.44" stop-color="#ffcc12"/>
      <stop offset="0.87" stop-color="#fbac1d"/>
      <stop offset="1" stop-color="#f9a120"/>
    </radialGradient>
    <radialGradient id="radial-gradient-2" cx="242.78" cy="-748.41" r="10.37" gradientTransform="matrix(1, 0, 0, -1, 0, 424)" xlink:href="#radial-gradient"/>
    <linearGradient id="linear-gradient-2" x1="491.4" y1="-221.76" x2="491.4" y2="-215.11" gradientTransform="translate(0 397)" gradientUnits="userSpaceOnUse">
      <stop offset="0" stop-color="#76bc43"/>
      <stop offset="0.32" stop-color="#72b844"/>
      <stop offset="0.65" stop-color="#6bab43"/>
      <stop offset="0.99" stop-color="#5e9841"/>
      <stop offset="1" stop-color="#5e9741"/>
    </linearGradient>
    <linearGradient id="linear-gradient-3" x1="509.09" y1="-221.72" x2="509.09" y2="-215.07" xlink:href="#linear-gradient-2"/>
    <linearGradient id="linear-gradient-4" x1="346.24" y1="-284.28" x2="346.24" y2="-302.28" gradientTransform="translate(0 397)" gradientUnits="userSpaceOnUse">
      <stop offset="0" stop-color="#2e76bc"/>
      <stop offset="0.82" stop-color="#699cd3"/>
    </linearGradient>
    <linearGradient id="linear-gradient-5" x1="576.6" y1="-92.22" x2="576.6" y2="-110.22" xlink:href="#linear-gradient-4"/>
    <linearGradient id="linear-gradient-6" x1="365.84" y1="-120.45" x2="388.47" y2="-120.45" gradientTransform="translate(0 397)" gradientUnits="userSpaceOnUse">
      <stop offset="0" stop-color="#005ca1"/>
      <stop offset="0.07" stop-color="#0161aa"/>
      <stop offset="0.36" stop-color="#2571b8"/>
      <stop offset="0.52" stop-color="#2e76bc"/>
      <stop offset="0.64" stop-color="#2973ba"/>
      <stop offset="0.82" stop-color="#166bb5"/>
      <stop offset="1" stop-color="#005ca1"/>
    </linearGradient>
    <radialGradient id="radial-gradient-3" cx="386.95" cy="-97.89" r="13.3" gradientTransform="translate(14.7 369.6) scale(0.94)" gradientUnits="userSpaceOnUse">
      <stop offset="0" stop-color="#f2f2f3"/>
      <stop offset="0.58" stop-color="#eee"/>
      <stop offset="1" stop-color="#e6e6e6"/>
    </radialGradient>
    <radialGradient id="radial-gradient-4" cx="15673.41" cy="4809.39" r="100.24" gradientTransform="translate(-2208.9 -447) scale(0.15)" gradientUnits="userSpaceOnUse">
      <stop offset="0.18" stop-color="#699cd3"/>
      <stop offset="1" stop-color="#2e76bc"/>
    </radialGradient>
    <linearGradient id="linear-gradient-7" x1="134.01" y1="-118.14" x2="133.96" y2="-125.12" gradientTransform="translate(0 397)" gradientUnits="userSpaceOnUse">
      <stop offset="0" stop-color="#cccccb"/>
      <stop offset="0.12" stop-color="#d7d7d7"/>
      <stop offset="0.42" stop-color="#ebebeb"/>
      <stop offset="0.72" stop-color="#f8f8f8"/>
      <stop offset="1" stop-color="#fdfefe"/>
    </linearGradient>
    <linearGradient id="linear-gradient-8" x1="144.14" y1="-111.13" x2="144.14" y2="-117.4" xlink:href="#linear-gradient-7"/>
    <linearGradient id="linear-gradient-9" x1="151.3" y1="-118.73" x2="151.3" y2="-125.39" xlink:href="#linear-gradient-7"/>
    <linearGradient id="linear-gradient-12" x1="485.31" y1="-120.67" x2="507.63" y2="-120.67" xlink:href="#linear-gradient-6"/>
    <linearGradient id="linear-gradient-13" x1="520.61" y1="-148.96" x2="520.61" y2="-129.97" gradientTransform="translate(0 397)" xlink:href="#radial-gradient-4"/>
    <linearGradient id="linear-gradient-14" x1="645.81" y1="-108.5" x2="645.81" y2="-129.08" gradientTransform="translate(0 397)" gradientUnits="userSpaceOnUse">
      <stop offset="0" stop-color="#b3b4b4"/>
      <stop offset="0.26" stop-color="#c2c1c0"/>
      <stop offset="1" stop-color="#e6e6e6"/>
    </linearGradient>
    <linearGradient id="linear-gradient-15" x1="765.7" y1="148.68" x2="765.7" y2="151.79" gradientTransform="matrix(1, 0, 0, -1, 0, 424)" gradientUnits="userSpaceOnUse">
      <stop offset="0" stop-color="#2e76bc"/>
      <stop offset="0.16" stop-color="#347dc0"/>
      <stop offset="0.53" stop-color="#4c8dcb"/>
      <stop offset="0.82" stop-color="#6198d1"/>
      <stop offset="1" stop-color="#699cd3"/>
    </linearGradient>
    <linearGradient id="linear-gradient-16" x1="778.45" y1="140.91" x2="778.45" y2="145.41" xlink:href="#linear-gradient-15"/>
    <linearGradient id="linear-gradient-17" x1="772.08" y1="153.66" x2="772.08" y2="158.16" xlink:href="#linear-gradient-15"/>
    <linearGradient id="linear-gradient-18" x1="772.08" y1="134.53" x2="772.08" y2="139.03" xlink:href="#linear-gradient-15"/>
    <linearGradient id="linear-gradient-19" x1="765.7" y1="160.03" x2="765.7" y2="164.53" xlink:href="#linear-gradient-15"/>
    <linearGradient id="linear-gradient-20" x1="765.7" y1="140.91" x2="765.7" y2="145.41" xlink:href="#linear-gradient-15"/>
    <linearGradient id="linear-gradient-21" x1="759.32" y1="153.66" x2="759.32" y2="158.16" xlink:href="#linear-gradient-15"/>
    <linearGradient id="linear-gradient-22" x1="759.32" y1="134.53" x2="759.32" y2="139.03" xlink:href="#linear-gradient-15"/>
    <linearGradient id="linear-gradient-23" x1="752.95" y1="160.03" x2="752.95" y2="164.53" xlink:href="#linear-gradient-15"/>
    <linearGradient id="linear-gradient-24" x1="752.95" y1="140.91" x2="752.95" y2="145.41" xlink:href="#linear-gradient-15"/>
    <linearGradient id="linear-gradient-25" x1="142.1" y1="0.91" x2="142.1" y2="-21.14" gradientTransform="translate(0 397)" gradientUnits="userSpaceOnUse">
      <stop offset="0" stop-color="#33bedd"/>
      <stop offset="0.18" stop-color="#3fc5e5"/>
      <stop offset="0.41" stop-color="#4cc7e8"/>
      <stop offset="0.78" stop-color="#50c8e9"/>
    </linearGradient>
    <linearGradient id="linear-gradient-26" x1="162.37" y1="-10.68" x2="162.37" y2="10.67" gradientTransform="translate(0 397)" gradientUnits="userSpaceOnUse">
      <stop offset="0" stop-color="#9f7db8"/>
      <stop offset="0.62" stop-color="#785ba7"/>
      <stop offset="1" stop-color="#6c53a3"/>
    </linearGradient>
  </defs>
  <g id="ICONS">
    <g id="Shapes">
      <rect class="cls-1" width="801.1" height="422.21"/>
      <path d="M253.8,56.8l-1.1-.2-.9-.6a4.7,4.7,0,0,1-.6-.9A2.2,2.2,0,0,1,251,54V39.9h-1.4l-.4-.3a.7.7,0,0,1-.1-.5.9.9,0,0,1,.1-.5l.3-.3H251V33.3a7,7,0,0,1,.5-2.5,9,9,0,0,1,1.4-2,8,8,0,0,1,2.1-1.5,6.4,6.4,0,0,1,2.4-.5h13.4a5.7,5.7,0,0,1,4.5,2,6,6,0,0,1,1.4,2.1,7,7,0,0,1,.5,2.5v4.7h1.4l.4.3a1.3,1.3,0,0,1,0,1l-.3.3-1,.2h-.5V54a2.2,2.2,0,0,1-.2,1.1,2.4,2.4,0,0,1-.6.9l-.9.6-1.1.2h-1.9l-1-.2a2,2,0,0,1-.9-.6l-.7-.9a4.3,4.3,0,0,1-.2-1.1v-.9H258.5V54a4.3,4.3,0,0,1-.2,1.1l-.6.9-1,.6-1,.2Zm-.9-15h22.5V33.3a5.8,5.8,0,0,0-.4-1.8,7.1,7.1,0,0,0-1-1.4,4,4,0,0,0-1.5-1,3.3,3.3,0,0,0-1.7-.4H257.4a3.3,3.3,0,0,0-1.7.4,3.1,3.1,0,0,0-1.5,1,7.1,7.1,0,0,0-1,1.4,5.8,5.8,0,0,0-.4,1.8Zm9.3-9.4a.9.9,0,1,1,0-1.8H266a.9.9,0,0,1,0,1.8Zm-9.3,11.3v7.5h22.5V43.7Zm3.7,3.7a1.7,1.7,0,0,1,.1-.7l.4-.6.6-.4h1.5l.6.4a2.1,2.1,0,0,1,.4.6,1.9,1.9,0,0,1,.2.7,2.4,2.4,0,0,1-.2.8,2.1,2.1,0,0,1-.4.6l-.6.4h-1.5l-.6-.4-.4-.6C256.7,47.9,256.6,47.7,256.6,47.4Zm11.2,0a1.9,1.9,0,0,1,.2-.7,2.1,2.1,0,0,1,.4-.6l.6-.4h1.4a.9.9,0,0,1,.6.4l.5.6a1.7,1.7,0,0,1,.1.7,2.2,2.2,0,0,1-.1.8l-.4.6-.6.4H269l-.6-.4a2.1,2.1,0,0,1-.4-.6C267.9,47.9,267.9,47.7,267.8,47.4Zm-12.1,7.5a.9.9,0,0,0,.9-.9v-.9h-3.7V54a.9.9,0,0,0,.9.9Zm18.7,0a.9.9,0,0,0,.9-.9v-.9h-3.7V54a.9.9,0,0,0,.9.9Z"/>
      <path d="M220.9,56.8l-1.1-.2a2,2,0,0,1-.9-.6,2.4,2.4,0,0,1-.6-.9A2.3,2.3,0,0,1,218,54V39.9h-1.4l-.3-.3a.7.7,0,0,1-.1-.5.9.9,0,0,1,.1-.5l.3-.3H218V33.3a5.4,5.4,0,0,1,.6-2.5,6.6,6.6,0,0,1,1.4-2,9.5,9.5,0,0,1,2-1.5,7,7,0,0,1,2.5-.5h13.4a7.4,7.4,0,0,1,2.5.5,9.5,9.5,0,0,1,2,1.5,6,6,0,0,1,1.4,2.1,7,7,0,0,1,.5,2.5v4.7h1.4c.1.1.3.2.3.3a.8.8,0,0,1,.2.5,4.3,4.3,0,0,1-.1.5l-.4.3h-1.4V54a4.3,4.3,0,0,1-.2,1.1l-.6.9-.9.6-1.1.2h-1.9l-1.1-.2a4.7,4.7,0,0,1-.9-.6l-.6-.9a4.3,4.3,0,0,1-.2-1.1v-.9H225.5V54a2.2,2.2,0,0,1-.2,1.1,2.4,2.4,0,0,1-.6.9l-.9.6-1.1.2Zm-1-15h22.5V33.3a5.7,5.7,0,0,0-.3-1.8,7.1,7.1,0,0,0-1-1.4,6.5,6.5,0,0,0-1.5-1,3.9,3.9,0,0,0-1.8-.4H224.5a3.9,3.9,0,0,0-1.8.4,3.3,3.3,0,0,0-1.4,1,4.5,4.5,0,0,0-1,1.4,3.9,3.9,0,0,0-.4,1.8Zm9.4-9.4a.9.9,0,0,1,0-1.8H233c.6,0,1,.4.9.9a.9.9,0,0,1-.9.9Zm-9.4,11.3v7.5h22.5V43.7Zm3.8,3.7a1.7,1.7,0,0,1,.1-.7,2.1,2.1,0,0,1,.4-.6l.6-.4h1.5l.6.4.4.6a1.7,1.7,0,0,1,.1.7,2.2,2.2,0,0,1-.1.8l-.4.6-.6.4h-1.5l-.6-.4a2.1,2.1,0,0,1-.4-.6A2.2,2.2,0,0,1,223.7,47.4Zm11.2,0a1.9,1.9,0,0,1,.2-.7l.4-.6a.9.9,0,0,1,.6-.4h1.4l.6.4a2.1,2.1,0,0,1,.4.6,1.9,1.9,0,0,1,.2.7,2.4,2.4,0,0,1-.2.8,2.1,2.1,0,0,1-.4.6l-.6.4h-1.4l-.6-.4c-.2-.2-.4-.4-.4-.6A2.4,2.4,0,0,1,234.9,47.4Zm-12.2,7.5a1,1,0,0,0,1-.9v-.9h-3.8V54a.9.9,0,0,0,1,.9Zm18.8,0a.9.9,0,0,0,.9-.9v-.9h-3.7V54a.9.9,0,0,0,.9.9Z"/>
      <path d="M187.9,56.8l-1.1-.2a4.7,4.7,0,0,1-.9-.6l-.6-.9a4.3,4.3,0,0,1-.2-1.1V39.9h-1.4c-.1-.1-.3-.2-.3-.3a.8.8,0,0,1-.2-.5c0-.2.1-.3.2-.5s.1-.2.3-.3h1.4V33.3a7,7,0,0,1,.5-2.5,14.3,14.3,0,0,1,1.4-2,8,8,0,0,1,2.1-1.5,7,7,0,0,1,2.5-.5h13.3a7,7,0,0,1,2.5.5,8,8,0,0,1,2.1,1.5,5.7,5.7,0,0,1,1.3,2.1,5.4,5.4,0,0,1,.6,2.5v4.7h1.4l.3.3a1.3,1.3,0,0,1,0,1l-.3.3h-1.2c-.1,0-.2,0-.2-.1V54a2.3,2.3,0,0,1-.3,1.1,2.4,2.4,0,0,1-.6.9l-.9.6-1.1.2h-1.8l-1.1-.2-.9-.6a2.4,2.4,0,0,1-.6-.9,1.5,1.5,0,0,1-.2-1.1v-.9H192.6V54a4.3,4.3,0,0,1-.2,1.1l-.6.9-.9.6-1.1.2Zm-.9-15h22.5V33.3a3.9,3.9,0,0,0-.4-1.8,5.2,5.2,0,0,0-2.4-2.4,3.9,3.9,0,0,0-1.8-.4H191.6a3.9,3.9,0,0,0-1.8.4,3.3,3.3,0,0,0-1.4,1,3.3,3.3,0,0,0-1,1.4,3.9,3.9,0,0,0-.4,1.8Zm9.4-9.4c-.6,0-1-.4-.9-.9a.9.9,0,0,1,.9-.9h3.7a.9.9,0,1,1,0,1.8ZM187,43.7v7.5h22.5V43.7Zm3.7,3.7a1.9,1.9,0,0,1,.2-.7,2.1,2.1,0,0,1,.4-.6l.6-.4h1.4a.9.9,0,0,1,.6.4l.4.6a1.9,1.9,0,0,1,.2.7,2.4,2.4,0,0,1-.2.8l-.4.6-.6.4h-1.4l-.6-.4a2.1,2.1,0,0,1-.4-.6A2.4,2.4,0,0,1,190.7,47.4Zm11.3,0a1.7,1.7,0,0,1,.1-.7l.4-.6.6-.4h1.5l.6.4a2.1,2.1,0,0,1,.4.6,1.7,1.7,0,0,1,.1.7,2.2,2.2,0,0,1-.1.8,2.1,2.1,0,0,1-.4.6l-.6.4h-1.5l-.6-.4-.4-.6A2.2,2.2,0,0,1,202,47.4Zm-12.2,7.5a.9.9,0,0,0,.9-.9v-.9H187V54a.9.9,0,0,0,.9.9Zm18.7,0a.9.9,0,0,0,1-.9v-.9h-3.8V54a1,1,0,0,0,1,.9Z"/>
      <g>
        <circle id="fa3a22e9-e4e8-46a1-bc09-f9532747c739" class="cls-1" cx="381.4" cy="40.8" r="3.5"/>
        <circle id="eb214416-6791-4934-ac0c-35afaa829f6e" class="cls-1" cx="387.2" cy="51.2" r="2.7"/>
        <circle id="a4424413-b91f-48da-aedd-39e3a978b430" class="cls-1" cx="376.4" cy="49.3" r="2.3"/>
        <circle id="f7ecfc1a-3268-471b-9464-57023bfc9cc4" class="cls-1" cx="374.7" cy="31.4" r="2.9"/>
        <circle id="b4388938-ad80-41b4-b729-5c21e3eab320" class="cls-1" cx="366.9" cy="42.2" r="2.3"/>
        <polygon class="cls-2" points="387.9 50.6 382 40.3 381.4 40.7 381.9 40.3 375.2 30.9 374 31.7 379.9 40.1 366.8 41.2 366.9 42.7 379.9 41.6 375.6 48.8 376.9 49.6 381.3 42.2 386.5 51.4 387.9 50.6"/>
        <g>
          <path class="cls-2" d="M392.2,28.1h0a1.3,1.3,0,0,0-1.3-1.3h-6.7a.6.6,0,0,0-.6.6v2.5a.7.7,0,0,0,.6.7h4.2v4a.7.7,0,0,0,.6.7h2.5a.7.7,0,0,0,.6-.7V28.1Z"/>
          <path class="cls-2" d="M370.1,53.1h-4.2V49a.7.7,0,0,0-.7-.6h-2.5a.6.6,0,0,0-.6.6v6.5h0a1.3,1.3,0,0,0,1.3,1.3h6.7a.6.6,0,0,0,.6-.6h0V53.7a.6.6,0,0,0-.6-.6Z"/>
        </g>
        <path class="cls-3" d="M381.4,37.4a3.6,3.6,0,0,1,0,7.1,3.5,3.5,0,0,1-3.5-3.6h0A3.5,3.5,0,0,1,381.4,37.4Zm-9.5-6a2.9,2.9,0,1,0,2.9-2.9h-.1A2.8,2.8,0,0,0,371.9,31.4Zm-7.4,10.7a2.4,2.4,0,0,0,2.4,2.4,2.3,2.3,0,0,0,2.3-2.4,2.3,2.3,0,0,0-2.3-2.3h0A2.3,2.3,0,0,0,364.5,42.1Zm9.5,7.2a2.4,2.4,0,0,0,4.8,0,2.5,2.5,0,0,0-2.4-2.4h0a2.5,2.5,0,0,0-2.4,2.4Zm10.5,1.9a2.7,2.7,0,0,0,2.7,2.7,2.8,2.8,0,0,0,2.8-2.7,2.7,2.7,0,0,0-2.7-2.7h-.1a2.5,2.5,0,0,0-2.7,2.6h0Z"/>
      </g>
      <g>
        <line class="cls-4" x1="285.2" y1="41.8" x2="350.2" y2="41.8"/>
        <polygon class="cls-5" points="349.1 45.6 355.6 41.8 349.1 38.1 349.1 45.6"/>
      </g>
      <g>
        <line class="cls-4" x1="395.2" y1="171.7" x2="470.2" y2="171.7"/>
        <polygon class="cls-5" points="469.1 175.4 475.6 171.7 469.1 167.9 469.1 175.4"/>
      </g>
      <g>
        <line class="cls-4" x1="400.6" y1="275.5" x2="421.6" y2="275.5"/>
        <polygon class="cls-5" points="401.7 279.2 395.2 275.5 401.7 271.7 401.7 279.2"/>
      </g>
      <g>
        <line class="cls-4" x1="523.6" y1="171.7" x2="618.6" y2="171.7"/>
        <polygon class="cls-5" points="617.5 175.4 624 171.7 617.5 167.9 617.5 175.4"/>
      </g>
      <g>
        <line class="cls-4" x1="377.2" y1="112.7" x2="377.2" y2="142.5"/>
        <polygon class="cls-5" points="373.4 141.4 377.2 147.9 380.9 141.4 373.4 141.4"/>
      </g>
      <g>
        <line class="cls-6" x1="377.2" y1="197.3" x2="377.2" y2="248.1"/>
        <polygon class="cls-7" points="373.4 198.4 377.2 191.9 380.9 198.4 373.4 198.4"/>
        <polygon class="cls-7" points="373.4 247 377.2 253.5 380.9 247 373.4 247"/>
      </g>
      <g>
        <line class="cls-6" x1="142.1" y1="191.9" x2="142.1" y2="248.1"/>
        <polygon class="cls-7" points="138.4 247 142.1 253.5 145.8 247 138.4 247"/>
      </g>
      <g>
        <line class="cls-6" x1="142.1" y1="297.5" x2="142.1" y2="353.7"/>
        <polygon class="cls-7" points="138.4 352.6 142.1 359.1 145.8 352.6 138.4 352.6"/>
      </g>
      <g>
        <line class="cls-6" x1="354.6" y1="275.5" x2="286.2" y2="275.5"/>
        <polygon class="cls-7" points="353.5 271.7 360 275.5 353.5 279.2 353.5 271.7"/>
        <polygon class="cls-7" points="287.3 271.7 280.8 275.5 287.3 279.2 287.3 271.7"/>
      </g>
      <g>
        <line class="cls-6" x1="235.8" y1="275.5" x2="167.4" y2="275.5"/>
        <polygon class="cls-7" points="234.7 271.7 241.2 275.5 234.7 279.2 234.7 271.7"/>
        <polygon class="cls-7" points="168.5 271.7 162 275.5 168.5 279.2 168.5 271.7"/>
      </g>
      <g>
        <path class="cls-8" d="M376.1,173.4h-5.3c-.2,0-.3-.1-.4-.3h0l6.5-16c.1-.1.1-.2.3-.2h6.2c.2,0,.4.1.3.3h0c.1.1.1.2,0,.2l-7.5,12.5h7.3c.2,0,.3.2.4.3v.2l-12.2,16.1c-.1.1-.9,1-.5-.3h0Z"/>
        <g>
          <path class="cls-9" d="M371.4,178.6l-1,1h-.7l-7.3-7.3a1.1,1.1,0,0,1,0-1.3l1-1h0l8,7.9a.9.9,0,0,1,0,.7Z"/>
          <path class="cls-10" d="M370.2,163.8l1,1a.4.4,0,0,1,0,.6l-7.8,7.8h0l-1-1a.9.9,0,0,1,0-1.2h0l7.2-7.2c.2-.2.5-.2.6,0Z"/>
        </g>
        <g>
          <path class="cls-9" d="M390.9,170l1,1a.9.9,0,0,1,0,1.2h0l-7.3,7.2a.5.5,0,0,1-.7,0h0l-.9-.9a.5.5,0,0,1,0-.7h0l7.9-7.9Z"/>
          <path class="cls-10" d="M391.9,172.3l-1,.9h0l-7.8-7.8a.4.4,0,0,1,0-.6h0l1-1a.4.4,0,0,1,.6,0h0l7.2,7.2a.9.9,0,0,1,0,1.2h0Z"/>
        </g>
      </g>
      <g>
        <path class="cls-11" d="M260.4,276.1h-5.3c-.2.1-.4,0-.4-.2h0l6.5-16,.2-.2h6.3a.3.3,0,0,1,.3.3h0v.2l-7.5,12.5h7.3a.3.3,0,0,1,.3.3c0,.1,0,.2-.1.2l-12.1,16.1c-.1.1-1,1-.6-.3h0Z"/>
        <g>
          <path class="cls-9" d="M255.6,281.4l-1,1a.6.6,0,0,1-.6,0h0l-7.3-7.3a.9.9,0,0,1,0-1.3h0l1-1h0l7.9,7.9a.5.5,0,0,1,0,.7Z"/>
          <path class="cls-10" d="M254.5,266.6l.9,1c.2.1.2.4,0,.6h0l-7.8,7.8h0l-.9-1a.7.7,0,0,1,0-1.2l7.1-7.2a.5.5,0,0,1,.7,0Z"/>
        </g>
        <g>
          <path class="cls-9" d="M275.1,272.8l1,1a.8.8,0,0,1,0,1.2h0l-7.3,7.3a.4.4,0,0,1-.6,0h0l-1-1c-.2-.1-.2-.4,0-.6h0l7.9-7.9Z"/>
          <path class="cls-10" d="M276.1,275l-1,1h0l-7.8-7.8a.6.6,0,0,1,0-.6h0l1-1a.5.5,0,0,1,.7,0h0l7.1,7.2a.8.8,0,0,1,0,1.2Z"/>
        </g>
      </g>
      <g>
        <path class="cls-2" d="M487.2,186.7a5.4,5.4,0,0,1-3.5-.9,3.9,3.9,0,0,1-1-3.1v-8c0-1.3-.5-2-1.6-2v-2c1.1,0,1.6-.7,1.6-2.1v-7.9a3.9,3.9,0,0,1,1-3.1,5.4,5.4,0,0,1,3.5-.9v2c-1.2,0-1.8.6-1.8,2v7.7c0,1.7-.5,2.8-1.7,3.3a3.2,3.2,0,0,1,1.7,3.3v7.6a2.9,2.9,0,0,0,.4,1.6,1.5,1.5,0,0,0,1.3.4v2.1Z"/>
        <path class="cls-2" d="M513.5,156.7a5.3,5.3,0,0,1,3.5.9,3.5,3.5,0,0,1,1,3.1v8c0,1.3.6,2,1.6,2v2c-1,0-1.6.7-1.6,2.1v7.8a3.6,3.6,0,0,1-1,3.1,5.3,5.3,0,0,1-3.5,1v-2.1c1.2,0,1.8-.6,1.8-1.9V175c0-1.8.6-2.9,1.7-3.3a3.3,3.3,0,0,1-1.7-3.3v-7.7a2.1,2.1,0,0,0-.4-1.5,1.9,1.9,0,0,0-1.3-.5Z"/>
        <path class="cls-12" d="M501.3,170.2v-2.9h-2.1v2.9a.4.4,0,0,1-.4.4h-7.5a.8.8,0,0,0-.8.8v3.8h2v-2.1a.4.4,0,0,1,.4-.4h14.8a.4.4,0,0,1,.4.4h0v2.1h2.1v-3.8a.9.9,0,0,0-.8-.8h-7.7a.4.4,0,0,1-.4-.4Z"/>
        <path class="cls-13" d="M504,158.5h-7.6a.9.9,0,0,0-.9.9V167a.9.9,0,0,0,.9.9H504a.9.9,0,0,0,.9-.8h0v-7.6a.9.9,0,0,0-.9-.9Zm-.7,7.2a.6.6,0,0,1-.6.6h-5a.6.6,0,0,1-.6-.6v-5a.6.6,0,0,1,.6-.6h4.9a.6.6,0,0,1,.6.6Z"/>
        <rect class="cls-14" x="488.1" y="175.2" width="6.7" height="6.67" rx="0.6"/>
        <rect class="cls-15" x="505.8" y="175.2" width="6.7" height="6.67" rx="0.6"/>
      </g>
      <path class="cls-16" d="M660.8,162.3v18.8h-30V162.3Zm-1.9,16.9v-13l-13.1,6.5-13.1-6.5v13Zm-26-15,12.9,6.4,12.9-6.4Z"/>
      <g>
        <path class="cls-1" d="M347.3,94.8h-7.7a.6.6,0,0,0-.6.6V112q0,.4.6.6h13.3a.6.6,0,0,0,.6-.6h0V101a.6.6,0,0,0-.6-.6h-4.4a.6.6,0,0,1-.6-.6h0V95.4a.6.6,0,0,0-.6-.6Z"/>
        <path class="cls-17" d="M347,95.6v4.1a1.6,1.6,0,0,0,1.5,1.6h4.2v10.5H339.8V95.6H347m.3-.9h-7.8a.6.6,0,0,0-.6.6h0v16.8a.6.6,0,0,0,.6.6H353a.6.6,0,0,0,.6-.6V101a.6.6,0,0,0-.6-.6h-4.5a.6.6,0,0,1-.6-.6h0V95.3a.6.6,0,0,0-.6-.6Z"/>
        <path class="cls-13" d="M353.4,100.5l-5.7-5.7v4.6a1.1,1.1,0,0,0,1,1.1Z"/>
        <path class="cls-18" d="M342.7,105.2a1.2,1.2,0,0,1-.3.9.8.8,0,0,1-.8.3h-.4v-.6h.4c.3,0,.4-.2.4-.6v-1.7h.7Zm.5,1.1v-.6l.3.2h.8v-.2h0v-.2a.1.1,0,0,1-.1-.1h-.5l-.5-.3a.9.9,0,0,1-.1-.5v-.4l.2-.2.4-.2h1.1v.6H344l-.2.3h.8l.3.2v.3a.4.4,0,0,1,.1.3c0,.1-.1.2-.1.4l-.3.2-.3.2h-1.2Zm3.6.2a1.5,1.5,0,0,1-1-.4,1.5,1.5,0,0,1-.4-1.1,1.2,1.2,0,0,1,.4-1,1.4,1.4,0,0,1,1-.5,1.5,1.5,0,0,1,1,.4,1.5,1.5,0,0,1,.4,1.1,1.2,1.2,0,0,1-.4,1,1,1,0,0,1-1,.4Zm0-2.4-.6.2a1.7,1.7,0,0,0,0,1.4l.6.2.5-.2a1.4,1.4,0,0,0,0-1.4.5.5,0,0,0-.5-.3Zm4.4,2.3h-.6l-1.2-1.8-.2-.2h0v2h-.6v-2.9h.7l1.2,1.8v.2h0v-2h.6Z"/>
      </g>
      <g>
        <path class="cls-1" d="M577.6,286.9H570a.5.5,0,0,0-.6.6V304a.6.6,0,0,0,.5.6h13.3a.7.7,0,0,0,.7-.6h0V293.1a.7.7,0,0,0-.7-.6h-4.4a.6.6,0,0,1-.6-.6v-4.4a.6.6,0,0,0-.6-.6Z"/>
        <path class="cls-19" d="M577.3,287.7v4.1a1.6,1.6,0,0,0,1.6,1.5h4.2v10.5h-13V287.7h7.2m.3-1h-7.8a.7.7,0,0,0-.6.7h0v16.7a.6.6,0,0,0,.6.6h13.5c.4,0,.7-.2.7-.6V293a.7.7,0,0,0-.7-.5h-4.4a.7.7,0,0,1-.7-.6h0v-4.5c0-.4-.2-.7-.6-.7Z"/>
        <path class="cls-13" d="M583.7,292.5l-5.7-5.6v4.6a1,1,0,0,0,1.1,1Z"/>
        <path class="cls-18" d="M573,297.3a1,1,0,0,1-.2.9,1.1,1.1,0,0,1-.8.3h-.4v-.6h.4c.2,0,.4-.2.4-.7v-1.6h.6Zm.5,1.1v-.7l.4.3h.8a.3.3,0,0,1,.1-.2h0v-.2h-.6a1,1,0,0,1-.5-.4.8.8,0,0,1-.2-.4c0-.2,0-.3.1-.4l.2-.3h1.5v.6a.1.1,0,0,0-.1-.1h-.9c-.1,0-.1.1-.1.2h0c0,.1.1.1.1.2h.7c.1.1.2.1.2.2s.2.1.2.2v.3c0,.2,0,.3-.1.4s-.1.2-.2.3h-1.6Zm3.6.1a1.4,1.4,0,0,1-1-.4,1.2,1.2,0,0,1-.3-1,2,2,0,0,1,.3-1.1,1.5,1.5,0,0,1,1.1-.4,1.3,1.3,0,0,1,1,.4,1.5,1.5,0,0,1,.4,1.1,2.1,2.1,0,0,1-.4,1,1.5,1.5,0,0,1-1.1.4Zm0-2.4a.5.5,0,0,0-.5.3,1.1,1.1,0,0,0,0,1.3.5.5,0,0,0,.5.3l.6-.3a1.5,1.5,0,0,0,0-1.3.5.5,0,0,0-.5-.3Zm4.5,2.4h-.7l-1.2-1.8c0-.1-.1-.2-.1-.3h0v2.1H579v-2.9h.7l1.1,1.7.2.3h0v-2h.6Z"/>
      </g>
      <g>
        <path class="cls-20" d="M377.2,267.7c-6.3,0-11.4-1.8-11.4-4.1v21.8c0,2.2,5,4,11.2,4.1h.2c6.2,0,11.3-1.8,11.3-4.1V263.6C388.5,265.8,383.4,267.7,377.2,267.7Z"/>
        <path class="cls-21" d="M388.5,263.6c0,2.2-5.1,4.1-11.3,4.1s-11.4-1.8-11.4-4.1,5.1-4.1,11.4-4.1,11.3,1.7,11.3,4.1"/>
        <path class="cls-9" d="M385.8,263.2c0,1.5-3.9,2.6-8.6,2.6s-8.7-1.1-8.7-2.6,3.9-2.6,8.7-2.6,8.6,1.2,8.6,2.6"/>
        <path class="cls-22" d="M377.2,263.9a19.9,19.9,0,0,0-6.9,1,19.9,19.9,0,0,0,6.9.9,17.6,17.6,0,0,0,6.8-1A19.6,19.6,0,0,0,377.2,263.9Z"/>
        <path class="cls-23" d="M384,278.7v-6h-1.6V280h4.4v-1.3Zm-12.6-2.9-.9-.6a.8.8,0,0,1-.2-.6.5.5,0,0,1,.3-.5l.7-.2a3.5,3.5,0,0,1,1.8.5v-1.5a5.7,5.7,0,0,0-1.8-.3,3.3,3.3,0,0,0-1.9.6,1.7,1.7,0,0,0-.7,1.6c0,.9.5,1.6,1.7,2.1a4.1,4.1,0,0,1,1.1.7.5.5,0,0,1,.3.5.9.9,0,0,1-.3.6l-.8.2a2.7,2.7,0,0,1-1.9-.8v1.7a4.1,4.1,0,0,0,1.9.4,4.2,4.2,0,0,0,2.1-.6,1.8,1.8,0,0,0,.5-1.6,1.6,1.6,0,0,0-.4-1.2,3.1,3.1,0,0,0-1.5-1Zm9.3,2.8a3.8,3.8,0,0,0,0-4.1,3.5,3.5,0,0,0-1.3-1.4,3.3,3.3,0,0,0-1.7-.4,3.2,3.2,0,0,0-1.9.5,2.7,2.7,0,0,0-1.3,1.3,4.6,4.6,0,0,0-.5,2,3.4,3.4,0,0,0,.5,1.7,2.2,2.2,0,0,0,1.2,1.3,2.7,2.7,0,0,0,1.7.6l1.6,1.7h2.1l-2.2-1.9a3.4,3.4,0,0,0,1.8-1.3Zm-1.8-.5a1.4,1.4,0,0,1-1.3.6,1.6,1.6,0,0,1-1.4-.6,3.6,3.6,0,0,1,0-3.5,2.1,2.1,0,0,1,1.4-.7,1.5,1.5,0,0,1,1.3.7,2.2,2.2,0,0,1,.5,1.7,2.3,2.3,0,0,1-.5,1.8Z"/>
      </g>
      <line class="cls-4" x1="377.2" y1="90.7" x2="377.2" y2="64.3"/>
      <g>
        <path id="ee75dd06-1aca-4f76-9d11-d05a284020ad" class="cls-24" d="M151.3,286.3a15,15,0,0,1-18.4-23.7h.2a15,15,0,0,1,18.2,23.8"/>
        <path class="cls-25" d="M138.1,271.3a22.8,22.8,0,0,1,15.7-6.3,16,16,0,0,0-2.6-2.6,25.9,25.9,0,0,0-8.3,2,19.9,19.9,0,0,0-7.2,5A4.5,4.5,0,0,1,138.1,271.3Z"/>
        <path class="cls-25" d="M130.6,277.4a35.3,35.3,0,0,0-1.5,4.6l1.1,1.6,1,1.2a34.1,34.1,0,0,1,1.9-6.2A4.9,4.9,0,0,1,130.6,277.4Z"/>
        <path class="cls-26" d="M132.3,269.3a21.9,21.9,0,0,1-1.2-5.2,15.7,15.7,0,0,0-1.9,2.6,21.3,21.3,0,0,0,1,4.2A4.7,4.7,0,0,1,132.3,269.3Z"/>
        <circle class="cls-27" cx="134" cy="273.9" r="4.8"/>
        <path class="cls-26" d="M141,282.7a3.3,3.3,0,0,1,1-2.3,18.3,18.3,0,0,1-4.5-3.2,5.1,5.1,0,0,1-2.6,1.4,27.3,27.3,0,0,0,2.5,2.3,34.8,34.8,0,0,0,3.6,2.2Z"/>
        <path class="cls-26" d="M152.1,283.1a19.7,19.7,0,0,1-4.8-.6v.2a3.6,3.6,0,0,1-.9,2.2,24.3,24.3,0,0,0,6,.4,12.1,12.1,0,0,0,2.1-2.4Z"/>
        <circle class="cls-28" cx="144.1" cy="282.7" r="3.1"/>
        <path class="cls-29" d="M148,274.3a3.4,3.4,0,0,1,1.1-1.8,42,42,0,0,1-7.9-7.3,28.9,28.9,0,0,1-3.5-5.1l-2,.7a36.7,36.7,0,0,0,3.8,5.6A48.9,48.9,0,0,0,148,274.3Z"/>
        <circle class="cls-30" cx="151.3" cy="274.9" r="3.3"/>
        <path class="cls-26" d="M156.9,277.2l-.6-.3h0l-.5-.3h-.2l-.4-.4h-.1l-.6-.3a3.6,3.6,0,0,1-1.1,1.6l.7.4h.1l.6.3h0l1.5.8h0a14.6,14.6,0,0,0,.5-2Z"/>
        <circle class="cls-27" cx="134" cy="273.9" r="4.8"/>
        <circle class="cls-28" cx="144.1" cy="282.7" r="3.1"/>
      </g>
      <g>
        <path class="cls-31" d="M496.5,267.6c-6.2,0-11.2-1.8-11.2-4.1V285c0,2.2,4.9,4,11,4.1h.2c6.1,0,11.1-1.8,11.1-4.1V263.5C507.6,265.8,502.6,267.6,496.5,267.6Z"/>
        <path class="cls-21" d="M507.6,263.5c0,2.3-5,4.1-11.1,4.1s-11.2-1.8-11.2-4.1,5-4,11.2-4,11.1,1.7,11.1,4"/>
        <path class="cls-9" d="M505,263.2c0,1.4-3.8,2.6-8.5,2.6s-8.6-1.2-8.6-2.6,3.8-2.6,8.6-2.6,8.5,1.2,8.5,2.6"/>
        <path class="cls-22" d="M496.5,263.8a22.3,22.3,0,0,0-6.8.9,22.5,22.5,0,0,0,13.6,0A22.3,22.3,0,0,0,496.5,263.8Z"/>
        <path class="cls-32" d="M503.3,278.1v-5.9h-1.6v7.3H506v-1.3Zm-12.6-2.9-.9-.5a1.3,1.3,0,0,1-.1-.6.5.5,0,0,1,.3-.5.7.7,0,0,1,.7-.2,2.3,2.3,0,0,1,1.8.5v-1.5a3.8,3.8,0,0,0-1.8-.3,2.7,2.7,0,0,0-2.1.6,2,2,0,0,0-.7,1.6q0,1.3,1.8,2.1l1,.6a.9.9,0,0,1,.3.6.5.5,0,0,1-.3.5,1.1,1.1,0,0,1-.8.3,3.2,3.2,0,0,1-2-.8v1.6a4.3,4.3,0,0,0,1.9.4,3.7,3.7,0,0,0,2.1-.6,1.8,1.8,0,0,0,.8-1.6,1.8,1.8,0,0,0-.5-1.2A4,4,0,0,0,490.7,275.2Zm9.2,2.8a4.6,4.6,0,0,0,.6-2.3,4.5,4.5,0,0,0-.5-1.9,2.5,2.5,0,0,0-1.2-1.3,3.5,3.5,0,0,0-1.8-.5,4.5,4.5,0,0,0-1.9.5,3.5,3.5,0,0,0-1.3,1.4,4.5,4.5,0,0,0-.4,2,3.7,3.7,0,0,0,.4,1.8A3,3,0,0,0,495,279a3.5,3.5,0,0,0,1.8.6l1.5,1.7h2.1l-2.1-1.9A4.3,4.3,0,0,0,499.9,278Zm-1.6-.5a1.7,1.7,0,0,1-2.5.2.2.2,0,0,1-.2-.2,2.2,2.2,0,0,1-.5-1.7,2.3,2.3,0,0,1,.5-1.8,1.7,1.7,0,0,1,1.4-.7,1.7,1.7,0,0,1,1.3.7,3.5,3.5,0,0,1,.5,1.8,4.1,4.1,0,0,1-.5,1.8Z"/>
        <path class="cls-2" d="M510.5,289.4l.4-1.4.9-.5,1.4.7.9-1h0l-.7-1.2.4-.9,1.5-.5h.1v-1.3h-.2l-1.4-.4-.4-.8.6-1.5-.9-.9h-.2l-1.2.7-.9-.6-.5-1.5H509v.2l-.5,1.3-.9.4-1.5-.7-.9,1h.1l.7,1.3-.4.9-1.6.6v1.3h.2l1.4.4.3.9-.6,1.5.9.9h.1l1.3-.7.9.4.6,1.6h1.4Zm-2.1-4.2a1.8,1.8,0,1,1,2.6-2.6h0a1.8,1.8,0,0,1,.1,2.6,1.9,1.9,0,0,1-2.7.1Z"/>
      </g>
      <path class="cls-33" d="M530.1,259.7a4.2,4.2,0,0,0-3.7-4.2,5.6,5.6,0,0,0-10.8-1.6,5,5,0,0,0-4.5,5,5.3,5.3,0,0,0,5.4,5.1h9.3A4.4,4.4,0,0,0,530.1,259.7Z"/>
      <line class="cls-4" x1="456.8" y1="275.5" x2="478.8" y2="275.5"/>
      <g>
        <line class="cls-4" x1="523.8" y1="275.5" x2="553.6" y2="275.5"/>
        <polygon class="cls-5" points="524.9 279.2 518.4 275.5 524.9 271.7 524.9 279.2"/>
      </g>
      <g>
        <line class="cls-4" x1="673.4" y1="275.5" x2="742.8" y2="275.5"/>
        <polygon class="cls-5" points="674.5 279.2 668 275.5 674.5 271.7 674.5 279.2"/>
      </g>
      <line class="cls-4" x1="597.6" y1="275.5" x2="624" y2="275.5"/>
      <g>
        <path class="cls-34" d="M628.4,267.9h34.8v19.4a1.2,1.2,0,0,1-1.1,1.2H629.6a1.2,1.2,0,0,1-1.2-1.2h0Z"/>
        <path class="cls-35" d="M629.6,260.5h32.5a1.1,1.1,0,0,1,1.1,1.1h0v6.3H628.4v-6.3A1.1,1.1,0,0,1,629.6,260.5Z"/>
        <path class="cls-1" d="M633.1,270.1h25.4a.6.6,0,0,1,.5.6v2.9a.5.5,0,0,1-.5.5H633.1a.5.5,0,0,1-.5-.5v-2.9A.6.6,0,0,1,633.1,270.1Z"/>
        <path class="cls-35" d="M633.2,275.9h25.3a.5.5,0,0,1,.5.5v2.9a.5.5,0,0,1-.5.5H633.2a.6.6,0,0,1-.6-.5v-2.8a.6.6,0,0,1,.5-.6Z"/>
        <path class="cls-36" d="M633.2,281.6h25.3a.6.6,0,0,1,.5.6v2.9a.5.5,0,0,1-.5.5H633.2a.6.6,0,0,1-.6-.5v-2.9A.6.6,0,0,1,633.2,281.6Z"/>
      </g>
      <g>
        <path class="cls-13" d="M780.7,264v-4.5h-4.5V264Z"/>
        <path class="cls-9" d="M780.7,270.3v-4.5h-4.5v4.5Z"/>
        <path class="cls-37" d="M780.7,275.3v-3.1h-30v3.1Z"/>
        <path class="cls-38" d="M780.7,283.1v-4.5h-4.5v4.5Z"/>
        <path class="cls-9" d="M774.3,264v-4.5h-4.5V264Z"/>
        <path class="cls-39" d="M774.3,270.3v-4.5h-4.5v4.5Z"/>
        <path class="cls-40" d="M774.3,289.5V285h-4.5v4.5Z"/>
        <path class="cls-41" d="M767.9,264v-4.5h-4.5V264Z"/>
        <path class="cls-9" d="M767.9,270.3v-4.5h-4.5v4.5Z"/>
        <path class="cls-42" d="M767.9,283.1v-4.5h-4.5v4.5Z"/>
        <path class="cls-9" d="M761.6,264v-4.5h-4.5V264Z"/>
        <path class="cls-43" d="M761.6,270.3v-4.5h-4.5v4.5Z"/>
        <path class="cls-44" d="M761.6,289.5V285h-4.5v4.5Z"/>
        <path class="cls-45" d="M755.2,264v-4.5h-4.5V264Z"/>
        <path class="cls-9" d="M755.2,270.3v-4.5h-4.5v4.5Z"/>
        <path class="cls-46" d="M755.2,283.1v-4.5h-4.5v4.5Z"/>
      </g>
      <path class="cls-47" d="M129.9,176.7h5.7L137,179h-8.3l-1.1-1.2v-20l1.1-1.1h26.8l1.1,1.1v10.6l-2.2-3.9v-5.6H129.9Zm12.3,2.3-3.1,7.7H144l12.5-12.9-1.6-3.8h-3.7l1.9-3.2-1.9-3.4h-6.4l-2,1.3-5.1,11.1,2,3.2Zm2.6-13.4h6.4l-4.1,6.7h7.8l-12.9,13,3.8-8.6h-6.1Zm-6.2,4.4h-6.5v-2.2h7.5Zm-2,4.5h-4.5v-2.2h5.5Z"/>
      <g>
        <path class="cls-48" d="M123.5,375.8h37.3v20.8a1.3,1.3,0,0,1-1.3,1.3H124.7a1.3,1.3,0,0,1-1.3-1.3Z"/>
        <path class="cls-49" d="M124.7,367.9h34.8a1.2,1.2,0,0,1,1.3,1.2v6.7H123.5v-6.7A1.2,1.2,0,0,1,124.7,367.9Z"/>
        <circle class="cls-32" cx="150.5" cy="385.5" r="3"/>
        <circle class="cls-32" cx="142.2" cy="385.5" r="3"/>
        <circle class="cls-32" cx="133.7" cy="385.5" r="3"/>
        <rect class="cls-32" x="128.5" y="370.3" width="27.3" height="3.2" rx="0.6"/>
      </g>
      <g id="e24f1216-e555-4a33-b1ed-d87b36f6ba1d">
        <g>
          <circle id="a5eab3d8-3bb2-4f0d-b199-b7e448427ca9" class="cls-50" cx="162.3" cy="407.8" r="3.7"/>
          <path class="cls-9" d="M162.3,413.8a6,6,0,1,1,6-6h0A6,6,0,0,1,162.3,413.8Zm0-11a5.1,5.1,0,0,0-5,5,5.1,5.1,0,0,0,5,5,5.1,5.1,0,0,0,5-5h0A5.1,5.1,0,0,0,162.3,402.8Z"/>
          <path class="cls-51" d="M162.3,416.3a8.5,8.5,0,1,1,8.5-8.5h0A8.5,8.5,0,0,1,162.3,416.3Zm0-16a7.5,7.5,0,1,0,7.5,7.5h0a7.6,7.6,0,0,0-7.5-7.5Z"/>
          <path class="cls-52" d="M162.4,386.3a6.5,6.5,0,0,0-6.3,6.7h0c0,2.9,3.7,9.8,5.4,14a1,1,0,0,0,1.2.5,1.2,1.2,0,0,0,.5-.5c1.7-4.2,5.5-11.2,5.5-14A6.6,6.6,0,0,0,162.4,386.3Zm0,9.1a2.8,2.8,0,1,1,0-5.5,2.8,2.8,0,0,1,2.8,2.8h0a2.8,2.8,0,0,1-2.8,2.7Z"/>
        </g>
      </g>
    </g>
  </g>
  <g id="EDIT_TEXT" data-name="EDIT TEXT">
    <text class="cls-53" transform="translate(68.9 165.6)">Actions <tspan x="0.9" y="16.8">GitHub</tspan></text>
    <text class="cls-53" transform="translate(14.1 271)">Application web <tspan x="10.9" y="16.8">statique Azure</tspan></text>
    <text class="cls-53" transform="translate(28.3 370)">Site web pour <tspan x="2.5" y="16.8">superviser les </tspan><tspan x="27.5" y="33.6">bus actifs</tspan></text>
    <text class="cls-53" transform="translate(207.8 231.5)">W T (<tspan class="cls-54" x="32.3" y="0">W</tspan><tspan x="44.8" y="0">ell-Known </tspan><tspan class="cls-55" x="39.1" y="16.8">T</tspan><tspan x="45" y="16.8">ext)</tspan></text>
    <text class="cls-53" transform="translate(243.9 310.3)">Azure <tspan x="-11.9" y="16.8">Functions</tspan></text>
    <text class="cls-53" transform="translate(317.1 164.7)">Azure <tspan x="-23.9" y="16.8">Functions</tspan></text>
    <text class="cls-53" transform="translate(359.4 311.1)">Azure <tspan x="5.4" y="16.8">SQL</tspan></text>
    <text class="cls-53" transform="translate(360 108.4)">JSON</text>
    <text class="cls-53" transform="translate(427.2 279.9)">TDS</text>
    <text class="cls-53" transform="translate(482.1 310.6)">T-SQL</text>
    <text class="cls-53" transform="translate(559.7 279.9)">JSON</text>
    <text class="cls-53" transform="translate(464.6 125.9)">Application <tspan x="-8" y="16.8">logique Azure</tspan></text>
    <text class="cls-53" transform="translate(609.7 126.3)">Notification <tspan x="0.7" y="16.8">via Outlook</tspan></text>
    <text class="cls-53" transform="translate(219.5 15.8)">Bus</text>
    <text class="cls-53" transform="translate(340 15.9)">Appareil IoT</text>
    <text class="cls-53" transform="translate(618.6 308.9)"><tspan class="cls-56">S</tspan><tspan x="7" y="0">tockage </tspan><tspan x="10.3" y="16.8">Azure</tspan></text>
    <text class="cls-53" transform="translate(733.5 308.9)"><tspan class="cls-57">R</tspan><tspan x="8" y="0">outer les </tspan><tspan x="-5.4" y="16.8">données de </tspan><tspan x="1.9" y="33.6">référence</tspan></text>
  </g>
</svg>
